<svg xmlns="http://www.w3.org/2000/svg" viewBox="0 0 24 24"><defs><style>.cls-1{fill:#f00075;}.cls-2{fill:#fff;}</style></defs><g id="Layer_2" data-name="Layer 2"><g id="Layer_1-2" data-name="Layer 1"><circle class="cls-1" cx="12" cy="12" r="12"/><path class="cls-2" d="M20,8.7a6.12,6.12,0,0,0-.37-1.94,4.12,4.12,0,0,0-2.34-2.34,5.92,5.92,0,0,0-1.95-.37c-.85,0-1.12,0-3.3,0s-2.44,0-3.3,0a5.61,5.61,0,0,0-1.94.37,3.91,3.91,0,0,0-1.42.92,4,4,0,0,0-.92,1.42A6.12,6.12,0,0,0,4.05,8.7C4,9.56,4,9.83,4,12s0,2.45,0,3.3a5.61,5.61,0,0,0,.37,1.94,4,4,0,0,0,.92,1.42,3.91,3.91,0,0,0,1.42.92A5.61,5.61,0,0,0,8.7,20c.86,0,1.13.05,3.3.05s2.44,0,3.3-.05a5.61,5.61,0,0,0,1.94-.37,4,4,0,0,0,2.34-2.34A5.61,5.61,0,0,0,20,15.3c0-.85.05-1.13.05-3.3S20,9.56,20,8.7Zm-1.44,6.54a4.44,4.44,0,0,1-.28,1.48,2.65,2.65,0,0,1-1.52,1.52,4.44,4.44,0,0,1-1.48.28c-.85,0-1.1,0-3.23,0s-2.4,0-3.24,0a4.44,4.44,0,0,1-1.48-.28,2.45,2.45,0,0,1-.92-.6,2.49,2.49,0,0,1-.6-.91,4.39,4.39,0,0,1-.27-1.49c0-.84,0-1.1,0-3.23s0-2.39,0-3.23a4.28,4.28,0,0,1,.27-1.49,2.45,2.45,0,0,1,.6-.92,2.57,2.57,0,0,1,.92-.6A4.33,4.33,0,0,1,8.78,5.5c.84,0,1.09,0,3.23,0s2.39,0,3.23,0a4.33,4.33,0,0,1,1.49.27,2.66,2.66,0,0,1,.92.6,2.55,2.55,0,0,1,.59.92,4.52,4.52,0,0,1,.28,1.49c0,.84.05,1.09.05,3.23S18.56,14.39,18.52,15.24Z"/><path class="cls-2" d="M12,7.89A4.11,4.11,0,1,0,16.11,12,4.11,4.11,0,0,0,12,7.89Zm0,6.78A2.67,2.67,0,1,1,14.67,12,2.67,2.67,0,0,1,12,14.67Z"/><path class="cls-2" d="M17.24,7.73a1,1,0,1,1-1-1A1,1,0,0,1,17.24,7.73Z"/></g></g></svg>