<svg xmlns="http://www.w3.org/2000/svg" viewBox="0 0 24 24"><defs><style>.cls-1{fill:#2867b2;}.cls-2{fill:#f1f2f2;}</style></defs><g id="Layer_2" data-name="Layer 2"><g id="Layer_1-2" data-name="Layer 1"><g id="Layer_2-2" data-name="Layer 2"><g id="Linkedin"><circle class="cls-1" cx="12" cy="12" r="12"/><path class="cls-2" d="M18.9,13v4.76H16.13V13.28c0-1.12-.4-1.88-1.41-1.88a1.53,1.53,0,0,0-1.42,1,2.16,2.16,0,0,0-.08.67v4.69H10.45V9.41h2.77v1.17h0a2.76,2.76,0,0,1,2.49-1.37c1.82,0,3.19,1.19,3.19,3.75ZM7.55,5.4a1.46,1.46,0,0,0,0,2.91h0a1.46,1.46,0,1,0,0-2.91ZM6.17,17.73H8.94V9.41H6.17Z"/></g></g></g></g></svg>